<svg width="108" height="86" viewBox="0 0 108 86" fill="none" xmlns="http://www.w3.org/2000/svg">
<g id="fa-discord 1">
<path id="Vector" d="M88.0996 11.7242C88.0706 11.6699 88.0228 11.6281 87.9652 11.6066C81.5662 8.67024 74.8136 6.57558 67.8761 5.37501C67.8138 5.36359 67.7495 5.37203 67.6922 5.39916C67.6349 5.42629 67.5876 5.47072 67.557 5.52618C66.6368 7.19628 65.8015 8.91174 65.0543 10.666C57.5721 9.53034 49.9614 9.53034 42.4793 10.666C41.729 8.90741 40.8822 7.19152 39.9429 5.52618C39.9105 5.47237 39.8629 5.42932 39.8062 5.40243C39.7494 5.37554 39.686 5.366 39.6238 5.37501C32.6742 6.57017 25.9098 8.66499 19.5011 11.6066C19.4449 11.6305 19.3978 11.6717 19.3668 11.7242C6.56753 30.8559 3.05699 49.5004 4.77027 67.9266C4.77512 67.9729 4.78957 68.0178 4.81271 68.0583C4.83584 68.0988 4.86715 68.134 4.90464 68.1617C12.3602 73.6763 20.6979 77.8849 29.5625 80.6082C29.6262 80.6279 29.6945 80.6272 29.7577 80.6061C29.821 80.585 29.8761 80.5446 29.9152 80.4906C31.8172 77.9014 33.5026 75.1598 34.9543 72.2938C34.9736 72.2543 34.9846 72.2113 34.9865 72.1674C34.9884 72.1236 34.9813 72.0797 34.9655 72.0387C34.9498 71.9978 34.9257 71.9605 34.8949 71.9292C34.864 71.8979 34.8271 71.8734 34.7863 71.857C32.1232 70.8366 29.5452 69.6065 27.0765 68.1785C27.0329 68.1518 26.9963 68.115 26.9699 68.0712C26.9435 68.0274 26.928 67.9779 26.9247 67.9269C26.9214 67.8758 26.9304 67.8248 26.951 67.7779C26.9716 67.7311 27.0031 67.6899 27.0429 67.6578C27.5636 67.2715 28.0843 66.8684 28.5714 66.4652C28.6144 66.4275 28.6672 66.4028 28.7237 66.3938C28.7802 66.3849 28.8381 66.3922 28.8906 66.4148C45.0492 73.7887 62.5515 73.7887 78.5254 66.4148C78.5763 66.3899 78.6333 66.3799 78.6898 66.3858C78.7462 66.3917 78.7998 66.4135 78.8445 66.4484C79.3316 66.8516 79.8523 67.2715 80.373 67.6578C80.4128 67.6899 80.4444 67.7311 80.465 67.7779C80.4855 67.8248 80.4946 67.8758 80.4913 67.9269C80.488 67.9779 80.4725 68.0274 80.446 68.0712C80.4196 68.115 80.383 68.1518 80.3394 68.1785C77.8771 69.6139 75.2981 70.8389 72.6296 71.8402C72.5889 71.8566 72.5519 71.8811 72.5211 71.9124C72.4902 71.9437 72.4662 71.981 72.4504 72.0219C72.4346 72.0629 72.4275 72.1068 72.4294 72.1506C72.4314 72.1945 72.4424 72.2375 72.4617 72.277C73.9387 75.1287 75.6229 77.8684 77.5007 80.4738C77.5399 80.5278 77.5949 80.5682 77.6582 80.5893C77.7215 80.6104 77.7898 80.6111 77.8535 80.5914C86.7436 77.8804 95.1055 73.671 102.578 68.1449C102.617 68.118 102.649 68.0829 102.672 68.0423C102.695 68.0017 102.709 67.9564 102.713 67.9098C104.762 46.6281 99.2527 28.1348 88.0996 11.7242ZM37.373 56.7063C32.5019 56.7063 28.5043 52.2383 28.5043 46.7625C28.5043 41.2867 32.4347 36.802 37.373 36.802C42.3617 36.802 46.3257 41.3035 46.2418 46.7457C46.2418 52.2383 42.3113 56.7063 37.373 56.7063ZM70.1941 56.7063C65.323 56.7063 61.3254 52.2383 61.3254 46.7625C61.3254 41.2867 65.239 36.802 70.1941 36.802C75.1828 36.802 79.1468 41.3035 79.0629 46.7457C79.0629 52.2383 75.166 56.7063 70.1941 56.7063Z" fill="white"/>
</g>
</svg>
