<svg width="84" height="96" viewBox="0 0 84 96" fill="none" xmlns="http://www.w3.org/2000/svg">
<g id="fa-instagram" clip-path="url(#clip0_4_37)">
<path id="Vector" d="M42.0188 26.4375C30.0938 26.4375 20.475 36.0562 20.475 47.9812C20.475 59.9062 30.0938 69.525 42.0188 69.525C53.9438 69.525 63.5625 59.9062 63.5625 47.9812C63.5625 36.0562 53.9438 26.4375 42.0188 26.4375ZM42.0188 61.9875C34.3125 61.9875 28.0125 55.7062 28.0125 47.9812C28.0125 40.2562 34.2938 33.975 42.0188 33.975C49.7438 33.975 56.025 40.2562 56.025 47.9812C56.025 55.7062 49.725 61.9875 42.0188 61.9875ZM69.4688 25.5562C69.4688 28.35 67.2188 30.5812 64.4438 30.5812C61.65 30.5812 59.4188 28.3312 59.4188 25.5562C59.4188 22.7812 61.6688 20.5312 64.4438 20.5312C67.2188 20.5312 69.4688 22.7812 69.4688 25.5562ZM83.7375 30.6562C83.4188 23.925 81.8813 17.9625 76.95 13.05C72.0375 8.13748 66.075 6.59998 59.3438 6.26248C52.4063 5.86873 31.6125 5.86873 24.675 6.26248C17.9625 6.58123 12 8.11873 7.06877 13.0312C2.13752 17.9437 0.618774 23.9062 0.281274 30.6375C-0.112476 37.575 -0.112476 58.3687 0.281274 65.3062C0.600024 72.0375 2.13752 78 7.06877 82.9125C12 87.825 17.9438 89.3625 24.675 89.7C31.6125 90.0937 52.4063 90.0937 59.3438 89.7C66.075 89.3812 72.0375 87.8437 76.95 82.9125C81.8625 78 83.4 72.0375 83.7375 65.3062C84.1313 58.3687 84.1313 37.5937 83.7375 30.6562ZM74.775 72.75C73.3125 76.425 70.4813 79.2562 66.7875 80.7375C61.2563 82.9312 48.1313 82.425 42.0188 82.425C35.9063 82.425 22.7625 82.9125 17.25 80.7375C13.575 79.275 10.7438 76.4437 9.26252 72.75C7.06877 67.2187 7.57502 54.0937 7.57502 47.9812C7.57502 41.8687 7.08752 28.725 9.26252 23.2125C10.725 19.5375 13.5563 16.7062 17.25 15.225C22.7813 13.0312 35.9063 13.5375 42.0188 13.5375C48.1313 13.5375 61.275 13.05 66.7875 15.225C70.4625 16.6875 73.2938 19.5187 74.775 23.2125C76.9688 28.7437 76.4625 41.8687 76.4625 47.9812C76.4625 54.0937 76.9688 67.2375 74.775 72.75Z" fill="white"/>
</g>
<defs>
<clipPath id="clip0_4_37">
<rect width="84" height="96" fill="white"/>
</clipPath>
</defs>
</svg>
