<svg width="200" height="228" viewBox="0 0 200 228" fill="none" xmlns="http://www.w3.org/2000/svg">
<g id="fa-instagram 1" clip-path="url(#clip0_73_106)">
<path id="Vector" d="M99.7945 62.7891C71.4726 62.7891 48.6281 85.6336 48.6281 113.956C48.6281 142.277 71.4726 165.122 99.7945 165.122C128.116 165.122 150.961 142.277 150.961 113.956C150.961 85.6336 128.116 62.7891 99.7945 62.7891ZM99.7945 147.22C81.4921 147.22 66.5296 132.302 66.5296 113.956C66.5296 95.6086 81.4476 80.6907 99.7945 80.6907C118.141 80.6907 133.059 95.6086 133.059 113.956C133.059 132.302 118.097 147.22 99.7945 147.22ZM164.988 60.6961C164.988 67.3313 159.645 72.6305 153.054 72.6305C146.419 72.6305 141.119 67.2868 141.119 60.6961C141.119 54.1055 146.463 48.7618 153.054 48.7618C159.645 48.7618 164.988 54.1055 164.988 60.6961ZM198.877 72.8086C198.12 56.8219 194.468 42.661 182.756 30.9938C171.089 19.3266 156.928 15.675 140.941 14.8735C124.465 13.9383 75.0796 13.9383 58.6031 14.8735C42.6609 15.6305 28.5 19.2821 16.7882 30.9493C5.07652 42.6165 1.46948 56.7774 0.66792 72.7641C-0.267236 89.2407 -0.267236 138.626 0.66792 155.102C1.42495 171.089 5.07652 185.25 16.7882 196.917C28.5 208.584 42.6164 212.236 58.6031 213.038C75.0796 213.973 124.465 213.973 140.941 213.038C156.928 212.281 171.089 208.629 182.756 196.917C194.423 185.25 198.075 171.089 198.877 155.102C199.812 138.626 199.812 89.2852 198.877 72.8086ZM177.591 172.781C174.117 181.509 167.393 188.234 158.62 191.752C145.484 196.962 114.312 195.759 99.7945 195.759C85.2773 195.759 54.0609 196.917 40.9687 191.752C32.2406 188.278 25.5164 181.554 21.9984 172.781C16.7882 159.645 17.9906 128.473 17.9906 113.956C17.9906 99.4383 16.8328 68.2219 21.9984 55.1297C25.4718 46.4016 32.196 39.6774 40.9687 36.1594C54.1054 30.9493 85.2773 32.1516 99.7945 32.1516C114.312 32.1516 145.528 30.9938 158.62 36.1594C167.348 39.6329 174.073 46.3571 177.591 55.1297C182.801 68.2665 181.598 99.4383 181.598 113.956C181.598 128.473 182.801 159.689 177.591 172.781Z" fill="white" fill-opacity="0.5"/>
</g>
<defs>
<clipPath id="clip0_73_106">
<rect width="199.5" height="228" fill="white"/>
</clipPath>
</defs>
</svg>
