<svg width="708" height="785" viewBox="0 0 708 785" fill="none" xmlns="http://www.w3.org/2000/svg">
<path d="M369.215 0.00168886L334.26 0.323415C325.049 0.411541 317.58 8.14119 317.663 17.4868L318.029 57.9023C307.876 59.8515 297.821 62.6743 287.937 66.3601L267.713 31.5705C264.675 26.3379 259.108 23.1438 253.123 23.202C250.18 23.2305 247.296 24.0398 244.762 25.5585L214.658 43.5804C206.722 48.3334 204.059 58.8074 208.744 66.8598L228.933 101.594C220.964 108.598 213.674 116.191 207.079 124.271L172.416 104.401C169.856 102.935 166.966 102.169 164.027 102.197C158.049 102.255 152.545 105.556 149.602 110.837C149.598 110.837 149.594 110.837 149.589 110.837L132.398 141.715C127.868 149.854 130.722 160.263 138.741 164.863L173.591 184.848C170.193 194.818 167.556 205.041 165.772 215.443L125.792 215.813C116.581 215.901 109.109 223.619 109.192 232.965L109.522 268.43C109.554 272.09 110.771 275.456 112.756 278.22C52.3307 311.086 19.1946 361.906 6.29111 408.299C-6.51503 453.779 0.470913 496.174 25.0481 521.835C44.4514 542.442 74.1375 550.774 109.126 545.918C115.586 560.356 125.918 572.661 138.942 581.423C155.37 592.973 187.709 598.882 207.111 598.882C213.912 598.861 220.694 598.159 227.357 596.781C229.285 600.948 231.446 605.004 233.825 608.922C260.019 651.58 300.574 646.855 334.915 637.011L436.779 785L494.989 782.9L472.353 702.569C533.279 719.764 646.335 693.512 640.965 621.322C645.188 619.852 649.284 618.01 653.191 615.811C667.297 608.074 679.43 597.114 688.647 583.798C697.863 570.483 703.905 555.176 706.291 539.091C710.482 514.972 706.917 490.127 696.135 468.213C707.583 441.963 705.192 409.475 688.182 377.058C680.052 361.549 667.463 348.915 652.09 340.832C646.963 310.532 627.159 280.593 597.98 257.506C598.448 256.942 598.715 256.234 598.739 255.497L598.487 228.361C598.4 219.014 590.795 211.436 581.583 211.52L541.654 211.89C539.75 201.596 537.008 191.389 533.404 181.357L567.69 160.851C567.694 160.846 567.698 160.841 567.702 160.836C575.639 156.081 578.289 145.612 573.6 137.56L555.851 107.014C555.851 107.013 555.851 107.015 555.851 107.014C555.851 107.013 555.851 107.009 555.851 107.008C555.851 107.007 555.851 107.009 555.851 107.008C555.851 107.007 555.851 107.003 555.851 107.002C552.812 101.777 547.24 98.589 541.262 98.6452C538.322 98.6724 535.445 99.4869 532.912 101.002L498.68 121.486C491.777 113.4 484.307 105.996 476.344 99.3019L495.911 64.1529C495.911 64.1519 495.911 64.1539 495.911 64.1529C495.911 64.1519 495.911 64.1478 495.911 64.1468C495.911 64.1458 495.911 64.1478 495.911 64.1468C495.911 64.1458 495.911 64.1417 495.911 64.1407C500.438 56.0023 497.59 45.5916 489.572 40.9923L459.141 23.5455C456.581 22.0793 453.68 21.3133 450.741 21.3415C444.762 21.3988 439.256 24.7006 436.313 29.9811L416.631 65.3185C406.803 61.8669 396.731 59.1963 386.479 57.385L386.109 16.8294C386.021 7.48381 378.42 -0.0835869 369.209 0.000697285L369.215 0.00168886ZM342.369 71.321C342.81 71.3827 343.226 71.5149 343.608 71.7441C344.371 72.2024 344.861 73.0538 344.985 73.9361L348.321 97.5836C348.708 100.33 347.797 102.831 345.744 104.558C343.692 106.285 340.637 107.342 336.597 107.928L327.389 109.262C323.371 109.845 320.15 109.706 317.698 108.635C315.247 107.563 313.667 105.424 313.279 102.674L312.178 94.8413C311.788 92.0715 312.71 89.5637 314.767 87.8305C316.824 86.0972 319.87 85.0435 323.888 84.4604L338.847 82.2807L337.824 74.9744C337.698 74.078 337.94 73.1129 338.556 72.4628C339.171 71.8128 340.018 71.4849 340.98 71.3457C341.46 71.2751 341.928 71.2616 342.369 71.321ZM366.991 72.2434C367.435 72.2066 367.899 72.2467 368.38 72.3359C369.344 72.5122 370.193 72.8484 370.793 73.5263C371.393 74.2041 371.584 75.1864 371.426 76.0775L368.696 91.4082L394.503 96.1115L397.222 80.7958C397.379 79.9051 397.907 79.0484 398.71 78.6284C399.512 78.2097 400.419 78.1921 401.401 78.3728C402.364 78.5491 403.199 78.8783 403.789 79.5631C404.378 80.248 404.551 81.225 404.395 82.102L399.343 110.544C399.185 111.435 398.67 112.289 397.875 112.712C397.081 113.135 396.175 113.143 395.211 112.967C394.248 112.791 393.411 112.467 392.811 111.789C392.211 111.111 392.023 110.129 392.181 109.238L393.429 102.2L363.808 96.778C362.941 96.6194 362.183 96.3351 361.609 95.7397C361.036 95.1443 360.796 94.2206 360.94 93.4079L364.25 74.7712C364.407 73.8806 364.934 73.0265 365.729 72.6038C366.126 72.3923 366.548 72.283 366.991 72.2434ZM339.705 88.3929L324.608 90.5849C322.47 90.8934 320.981 91.4311 320.189 91.9974C319.396 92.5641 319.215 92.9639 319.328 93.7659L320.453 101.675C320.561 102.446 320.834 102.797 321.755 103.121C322.676 103.447 324.256 103.535 326.39 103.222L335.877 101.849C338.011 101.541 339.504 101.001 340.299 100.428C341.094 99.8548 341.266 99.4428 341.157 98.6711L339.705 88.3929ZM291.752 95.4831C294.182 95.6594 296.201 97.0652 297.461 99.3401L301.883 107.325C303.089 109.501 303.198 111.888 302.108 113.992C301.019 116.096 298.908 117.923 295.868 119.657L283.375 126.784C280.4 128.48 277.833 129.36 275.557 129.259C273.281 129.157 271.368 127.907 270.214 125.822L268.924 123.49C267.778 121.422 267.724 119.112 268.825 117.094C269.926 115.075 272 113.317 274.975 111.62L290.804 102.597C290.548 102.342 290.353 102.021 289.844 102.019C289.089 102.016 287.872 102.389 286.319 103.276L280.66 106.506C279.866 106.959 279.046 107.225 278.197 107.097C277.349 106.969 276.619 106.36 276.202 105.608C275.786 104.856 275.654 103.92 275.974 103.109C276.293 102.298 276.936 101.711 277.741 101.252L283.402 98.0219C286.566 96.2181 289.321 95.3086 291.752 95.4831ZM421.739 98.6491C424.412 98.5433 427.471 99.5834 431.049 101.623L444.957 109.557C445.778 110.025 446.44 110.607 446.776 111.429C447.111 112.251 446.993 113.227 446.563 114.004C446.133 114.781 445.371 115.393 444.504 115.53C443.638 115.666 442.796 115.393 441.975 114.927L427.917 106.917C426.034 105.843 424.526 105.34 423.557 105.301C422.589 105.262 422.206 105.464 421.814 106.172L417.962 113.146C417.586 113.826 417.59 114.269 418.127 115.094C418.664 115.92 419.872 116.97 421.751 118.041L435.813 126.066C436.624 126.529 437.282 127.086 437.631 127.899C437.979 128.711 437.872 129.7 437.442 130.477C437.012 131.254 436.251 131.866 435.384 132.002C434.517 132.139 433.676 131.866 432.855 131.4L418.949 123.479C415.372 121.439 412.899 119.318 411.596 116.952C410.292 114.586 410.331 111.924 411.67 109.506L415.487 102.622C416.836 100.186 419.065 98.7553 421.739 98.6491ZM293.734 107.313L277.98 116.288C276.504 117.13 275.596 117.945 275.214 118.544C274.832 119.142 274.832 119.378 275.1 119.862L276.276 121.978C276.56 122.49 276.763 122.621 277.464 122.605C278.166 122.588 279.333 122.23 280.81 121.387L292.736 114.583C294.25 113.719 295.181 112.875 295.565 112.248C295.949 111.621 295.953 111.323 295.629 110.735L293.734 107.313ZM468.87 116.157C469.744 116.306 470.482 116.846 471.129 117.581C471.776 118.317 472.22 119.118 472.266 120.017C472.312 120.915 471.874 121.795 471.219 122.388L465.785 127.296L475.854 138.742C478.572 141.832 480.225 144.637 480.693 147.306C481.162 149.974 480.258 152.483 478.203 154.344L468.237 163.379C467.571 163.982 466.652 164.331 465.774 164.174C464.895 164.015 464.178 163.464 463.539 162.737C462.887 161.996 462.423 161.21 462.363 160.302C462.304 159.393 462.759 158.496 463.425 157.894L473.454 148.807C474.039 148.277 474.166 147.862 473.946 146.959C473.726 146.056 472.982 144.75 471.624 143.205L461.253 131.412L449.492 142.063C448.826 142.666 447.907 143.015 447.029 142.858C446.151 142.699 445.43 142.148 444.791 141.421C444.152 140.695 443.696 139.916 443.642 139.013C443.59 138.11 444.038 137.217 444.704 136.615L466.431 116.94C467.086 116.346 467.995 116.008 468.87 116.157ZM251.307 123.207C252.906 123.141 254.45 123.718 255.723 124.875L259.578 128.361C260.18 128.909 260.582 129.75 260.523 130.577C260.465 131.404 260.052 132.106 259.488 132.744L242.75 151.689L243.989 152.818C244.516 153.297 244.865 153.368 245.693 153.048C246.521 152.726 247.717 151.825 249.081 150.28L253.626 145.126C254.234 144.437 254.918 143.912 255.762 143.756C256.606 143.602 257.49 143.937 258.123 144.511C258.756 145.087 259.183 145.95 259.122 146.819C259.064 147.687 258.633 148.425 258.024 149.114L253.464 154.265C250.895 157.173 248.483 159.063 246.059 159.814C243.636 160.566 241.188 159.999 239.252 158.24L232.532 152.124C230.696 150.456 229.838 148.215 230.194 145.856C230.551 143.498 231.96 141.071 234.275 138.45L243.155 128.386C245.416 125.825 247.55 124.161 249.699 123.491C250.236 123.323 250.774 123.229 251.307 123.207ZM250.914 130.447C250.68 130.389 250.434 130.421 250.103 130.526C249.442 130.733 248.461 131.421 247.337 132.693L238.886 142.267C237.73 143.577 237.135 144.669 236.99 145.381C236.845 146.094 236.964 146.409 237.508 146.907L238.67 147.972L252.818 131.95L251.642 130.9C251.365 130.649 251.147 130.503 250.914 130.447ZM350.008 132.376C390.454 130.822 430.173 151.335 452.373 189.524C457.681 198.658 461.502 208.23 464.154 217.976C461.126 218.372 458.098 218.788 455.085 219.358C415.599 199.571 369.838 190.582 325.94 191.746C298.47 192.475 271.729 197.185 247.709 205.71C256.728 182.646 273.064 162.304 295.984 148.587C313.092 138.349 331.627 133.083 350.013 132.376L350.008 132.376ZM210.273 157.154C210.721 157.162 211.172 157.273 211.572 157.471L237.191 170.211C238.004 170.617 238.66 171.38 238.832 172.275C239.004 173.171 238.767 174.062 238.34 174.954C237.917 175.829 237.361 176.551 236.557 176.942C235.753 177.334 234.781 177.251 233.98 176.85L224.089 171.927L212.772 195.359L222.676 200.281C223.477 200.678 224.138 201.422 224.317 202.321C224.495 203.219 224.265 204.102 223.825 205.011C223.402 205.886 222.847 206.605 222.043 206.996C221.239 207.389 220.266 207.305 219.465 206.908L193.886 194.193C193.072 193.788 192.412 193.019 192.245 192.117C192.078 191.214 192.322 190.323 192.761 189.413C193.183 188.539 193.735 187.817 194.543 187.438C195.351 187.059 196.304 187.173 197.093 187.566L207.315 192.643L218.631 169.212L208.362 164.11C207.574 163.718 206.923 162.987 206.745 162.11C206.566 161.232 206.79 160.358 207.213 159.483C207.644 158.591 208.189 157.86 208.98 157.446C209.376 157.239 209.825 157.145 210.273 157.154ZM489.78 165.398C490.9 165.455 491.99 165.803 492.982 166.442C494.964 167.723 496.591 170.006 498.022 173.212L503.515 185.529C504.912 188.661 505.559 191.3 505.297 193.566C505.036 195.831 503.698 197.662 501.622 198.616L496.908 200.769C496.171 201.108 495.27 201.143 494.547 200.757C493.825 200.369 493.354 199.705 493.005 198.924L482.673 175.749L481.155 176.455C480.511 176.75 480.304 177.042 480.261 177.941C480.214 178.839 480.54 180.308 481.383 182.197L484.2 188.489C484.573 189.332 484.781 190.181 484.582 191.028C484.382 191.874 483.713 192.569 482.938 192.924C482.164 193.281 481.222 193.33 480.463 192.924C479.704 192.519 479.21 191.806 478.834 190.964L476.015 184.656C474.428 181.098 473.694 178.097 473.993 175.544C474.292 172.991 475.796 170.955 478.163 169.867L486.387 166.083C487.509 165.567 488.66 165.339 489.78 165.398ZM489.919 172.603C489.68 172.579 489.426 172.648 489.091 172.802L487.663 173.453L496.406 193.052L497.831 192.401C498.507 192.088 498.712 191.803 498.791 191.104C498.869 190.405 498.639 189.226 497.944 187.67L492.715 175.956C492 174.354 491.265 173.376 490.681 172.954C490.39 172.742 490.16 172.626 489.919 172.603ZM337.146 232.082C360.728 232.258 383.947 235.39 404.053 240.953C391.289 249.823 380.019 260.725 370.68 273.24C364.797 281.088 359.848 289.613 355.934 298.638C339.506 319.048 304.902 320.494 283.106 303.956L263.701 317.472C284.268 353.108 321.007 354.883 348.365 346.548C352.618 371.11 365.089 393.433 383.677 409.745L405.02 390.054C392.02 367.807 374.947 333.551 401.594 297.325C412.654 282.231 460.969 238.458 532.628 266.679C561.992 278.193 586.498 299.697 601.962 327.516C598.922 327.318 595.946 326.99 592.842 326.99C571.046 326.619 549.433 331.1 529.522 340.116C520.059 337.639 511.555 332.302 505.145 324.813C498.735 317.324 494.72 308.036 493.627 298.179L469.761 300.41C467.416 312.598 468.312 325.201 472.359 336.92C476.406 348.639 483.455 359.051 492.784 367.088C481.948 379.229 473.869 393.635 469.113 409.288L493.302 421.036C509.924 390.65 551.056 367.35 591.416 367.35H592.451C608.555 367.548 637.599 371.618 651.052 397.278C663.082 420.182 664.568 441.51 655.06 455.884C646.588 468.813 630.353 475.114 610.434 473.145L605.711 504.973C614.753 509.816 624.818 512.349 635.044 512.349C645.247 512.349 655.287 509.823 664.313 505C665.977 513.871 666.088 522.971 664.635 531.881C663.179 541.561 659.558 550.775 654.041 558.807C648.524 566.84 641.258 573.483 632.812 578.214C610.756 590.552 577.383 584.382 555.2 563.906C540.841 550.649 520.078 520.595 542.263 468.681L510.635 456.014C489.162 497.097 487.611 534.44 503.65 565.352C436.45 559.774 400.814 570.797 351.724 586.023C319.321 596.326 287.626 611.814 270.745 586.023C259.039 567.975 251.794 550.059 270.745 529.453C323.458 472.161 381.603 515.606 438.388 488.962L431.274 462.711C392.532 468.618 350.942 460.94 313.754 464.812L316.148 415.262L294.028 416.245L271.908 476.69C259.326 483.62 248.517 493.439 240.346 505.37C229.203 519.703 222.154 536.862 219.971 554.982C177.865 563.251 154.778 551.504 147.726 528.732L161.179 483.974L146.304 471.243L101.03 507.01C84.1489 508.126 66.2335 505.238 54.5259 493.031C39.7791 477.674 36.286 449.063 45.276 417.365C56.9828 376.152 88.9336 331.065 153.614 303.962C151.859 312.6 150.947 321.392 150.896 330.212C150.922 341.352 152.644 352.421 156.005 363.026L135.439 417.629L156.458 427.997L177.48 400.828C188.352 412.698 202.473 420.993 218.031 424.649L232.198 396.757C207.814 390.982 189.705 353.967 189.705 330.541C189.166 316.032 192.53 301.65 199.434 288.931C206.339 276.214 216.524 265.643 228.899 258.352C257.518 239.73 297.834 231.798 337.139 232.089L337.146 232.082ZM498.356 580.473C498.502 580.478 498.646 580.504 498.786 580.548L502.995 581.875C503.205 581.94 503.399 582.048 503.568 582.191C503.736 582.333 503.875 582.509 503.976 582.708C504.078 582.906 504.139 583.123 504.158 583.347C504.177 583.571 504.153 583.797 504.087 584.012L502.092 590.456C503.24 591.18 504.309 592.069 505.263 593.129C506.218 594.189 506.997 595.354 507.609 596.584L514.051 595.074C514.194 595.041 514.34 595.027 514.486 595.032C514.854 595.046 515.206 595.184 515.487 595.424C515.769 595.664 515.964 595.993 516.043 596.36L516.991 600.759C517.039 600.978 517.043 601.205 517.005 601.426C516.966 601.648 516.886 601.86 516.767 602.051C516.649 602.241 516.495 602.406 516.315 602.537C516.134 602.667 515.931 602.76 515.716 602.811L509.257 604.324C509.152 607.121 508.329 609.897 506.802 612.324L511.246 617.255C511.544 617.588 511.701 618.029 511.68 618.482C511.66 618.936 511.464 619.364 511.137 619.673L507.875 622.751C507.548 623.059 507.114 623.224 506.671 623.207C506.228 623.191 505.811 622.995 505.511 622.663L501.065 617.728C498.577 619.085 495.808 619.698 493.075 619.579L491.074 626.045C490.94 626.478 490.643 626.841 490.249 627.053C489.856 627.265 489.397 627.31 488.974 627.177L484.762 625.853C484.34 625.719 483.988 625.419 483.784 625.018C483.581 624.618 483.542 624.149 483.676 623.716L485.671 617.268C484.522 616.544 483.451 615.658 482.497 614.598C481.542 613.539 480.763 612.373 480.151 611.143L473.709 612.653C473.276 612.754 472.823 612.676 472.449 612.435C472.076 612.194 471.812 611.81 471.717 611.369L470.769 606.966C470.674 606.524 470.755 606.06 470.994 605.676C471.233 605.292 471.611 605.019 472.044 604.917L478.504 603.404C478.609 600.607 479.435 597.835 480.961 595.407L476.513 590.469C476.364 590.305 476.249 590.112 476.174 589.901C476.099 589.69 476.066 589.466 476.076 589.241C476.086 589.016 476.14 588.795 476.233 588.591C476.326 588.386 476.458 588.202 476.621 588.049L479.882 584.974C480.045 584.821 480.235 584.702 480.442 584.624C480.649 584.545 480.868 584.509 481.088 584.518C481.308 584.526 481.524 584.578 481.723 584.671C481.922 584.765 482.101 584.898 482.249 585.062L486.689 589.994C489.179 588.635 491.948 588.023 494.682 588.143L496.683 581.68C496.794 581.32 497.018 581.006 497.32 580.788C497.623 580.569 497.988 580.459 498.356 580.473ZM418.875 589.109C419.636 589.168 420.366 589.443 420.98 589.904C421.594 590.364 422.067 590.991 422.346 591.712L426.726 603.061C430.554 602.515 434.488 602.569 438.391 603.268L443.191 592.123C443.497 591.414 443.994 590.807 444.625 590.371C445.256 589.935 445.996 589.689 446.758 589.661C447.367 589.637 447.973 589.753 448.532 590L457.127 593.811C457.615 594.028 458.057 594.34 458.426 594.729C458.795 595.119 459.086 595.579 459.28 596.082C459.474 596.586 459.568 597.123 459.558 597.664C459.547 598.204 459.432 598.738 459.218 599.233L454.417 610.38C457.572 612.812 460.284 615.703 462.487 618.925L473.672 614.48C474.24 614.256 474.85 614.164 475.457 614.211C476.219 614.27 476.948 614.545 477.562 615.005C478.176 615.466 478.65 616.093 478.928 616.814L482.349 625.676C482.741 626.692 482.719 627.825 482.288 628.825C481.857 629.826 481.052 630.611 480.051 631.009L468.869 635.454C469.408 639.338 469.354 643.33 468.665 647.29L479.646 652.161C480.632 652.598 481.406 653.414 481.799 654.43C482.192 655.446 482.171 656.579 481.74 657.58L477.984 666.302C477.77 666.797 477.463 667.245 477.079 667.62C476.695 667.994 476.242 668.289 475.745 668.486C475.249 668.683 474.719 668.779 474.187 668.768C473.654 668.757 473.129 668.64 472.64 668.424L461.656 663.55C459.26 666.752 456.41 669.503 453.235 671.739L457.615 683.088C458.007 684.105 457.986 685.238 457.555 686.238C457.124 687.238 456.319 688.024 455.317 688.422L446.583 691.892C445.582 692.29 444.465 692.268 443.479 691.831C442.494 691.393 441.719 690.577 441.327 689.56L436.944 678.211C433.117 678.758 429.184 678.703 425.282 678.004L420.482 689.149C420.052 690.149 419.247 690.935 418.246 691.334C417.244 691.732 416.128 691.711 415.142 691.274L406.546 687.46C405.56 687.023 404.786 686.207 404.393 685.19C404.001 684.174 404.022 683.042 404.452 682.041L409.255 670.896C406.1 668.464 403.388 665.573 401.185 662.351L390 666.796C388.998 667.194 387.882 667.172 386.896 666.734C385.91 666.297 385.136 665.48 384.744 664.464L381.324 655.599C380.932 654.583 380.954 653.451 381.385 652.451C381.816 651.452 382.621 650.667 383.622 650.269L394.806 645.824C394.267 641.939 394.318 637.946 395.007 633.985L384.024 629.114C383.039 628.677 382.265 627.86 381.873 626.844C381.481 625.828 381.502 624.695 381.933 623.696L385.692 614.974C385.998 614.264 386.495 613.657 387.126 613.221C387.757 612.786 388.496 612.54 389.259 612.511C389.868 612.488 390.474 612.604 391.032 612.85L402.016 617.724C404.413 614.522 407.261 611.768 410.437 609.532L406.057 598.187C405.863 597.684 405.768 597.147 405.778 596.606C405.789 596.066 405.904 595.533 406.117 595.037C406.331 594.542 406.638 594.094 407.022 593.72C407.406 593.345 407.859 593.051 408.355 592.854L417.089 589.38C417.656 589.154 418.267 589.063 418.875 589.109ZM544.562 592.199C545.827 592.203 547.078 592.459 548.336 592.578C550.561 593.041 553.965 592.388 554.565 595.367C554.344 599.169 553.724 602.952 553.347 606.746C558.011 608.502 562.176 611.614 565.176 615.644L574.663 611.492C577.769 610.08 578.781 613.671 579.685 615.818C580.4 618.004 582.659 620.663 580.417 622.68C577.069 624.377 573.547 625.727 570.13 627.286C570.962 632.267 570.334 637.478 568.392 642.126C571.373 644.448 574.501 646.594 577.384 649.034C579.018 651.16 576.798 653.13 575.659 654.802C574.021 656.73 572.628 660.496 569.418 658.705L560.958 652.312C557.133 655.555 552.372 657.64 547.422 658.239C547.031 661.638 546.642 665.036 546.251 668.434C546.087 671.852 542.507 671.308 540.236 670.933C537.773 670.458 533.866 671.114 533.789 667.402L535.016 656.741C530.35 654.986 526.186 651.871 523.186 647.839L513.897 651.907C510.701 653.513 509.574 649.875 508.674 647.669C507.855 645.331 505.434 642.307 508.552 640.439C511.779 639.026 515.007 637.614 518.234 636.201C517.401 631.22 518.029 626.009 519.971 621.361L511.657 615.084C508.799 612.759 511.727 610.173 513.091 608.155C514.526 606.313 516.113 602.935 518.945 604.782L527.405 611.172C531.231 607.929 535.992 605.846 540.942 605.247C541.181 603.152 541.425 601.056 541.665 598.961C542.178 596.521 541.421 592.977 544.562 592.199ZM494.227 596.02C492.279 595.949 490.298 596.649 488.721 598.136C485.567 601.11 485.35 605.992 488.229 609.189C491.109 612.386 495.882 612.562 499.036 609.59C502.19 606.616 502.407 601.733 499.528 598.537C498.088 596.938 496.175 596.092 494.227 596.02ZM544.074 615.153C535.872 615.111 528.471 621.91 527.894 630.243C526.882 639.324 534.445 648.213 543.491 648.323C552.483 648.912 560.866 640.812 560.529 631.634C560.664 622.775 552.82 614.843 544.074 615.153ZM432.083 617.853C423.342 617.721 415.036 622.824 411.289 631.521C406.293 643.119 411.426 656.416 422.855 661.486C434.285 666.556 447.387 661.349 452.383 649.75C457.379 638.153 452.247 624.858 440.817 619.789C437.96 618.521 434.997 617.897 432.083 617.853ZM666.992 625.64C666.531 625.644 666.032 625.847 665.726 626.218C665.418 626.588 665.305 627.046 665.273 627.524C665.232 628.042 665.306 628.544 665.599 628.973C665.894 629.401 666.409 629.633 666.901 629.667C667.393 629.7 667.937 629.544 668.29 629.165C668.642 628.786 668.774 628.306 668.81 627.796C668.851 627.276 668.777 626.763 668.479 626.334C668.18 625.906 667.672 625.674 667.18 625.64C667.115 625.636 667.044 625.639 666.992 625.64ZM660.725 633.574C659.732 633.615 658.831 634.144 658.211 634.998C657.591 635.852 657.187 637.001 656.912 638.459L656.255 642.009C655.941 643.676 655.92 645.034 656.328 646.137C656.741 647.24 657.68 648.014 658.843 648.24L661.9 648.828C663.056 649.053 664.201 648.687 664.981 647.817C665.76 646.947 666.233 645.676 666.547 644.009L667.216 640.459C667.529 638.792 667.55 637.433 667.142 636.331C666.734 635.23 665.81 634.453 664.655 634.228L661.585 633.64C661.29 633.583 661.004 633.565 660.725 633.574ZM660.697 637.126C660.749 637.105 660.809 637.122 660.914 637.138L664.007 637.741C664.207 637.783 664.224 637.774 664.311 638.076C664.398 638.375 664.415 638.99 664.259 639.833L663.566 643.51C663.409 644.342 663.175 644.893 662.984 645.139C662.793 645.385 662.767 645.368 662.567 645.332L659.473 644.742C659.256 644.7 659.252 644.693 659.169 644.394C659.083 644.094 659.065 643.499 659.221 642.665L659.915 638.987C660.075 638.142 660.31 637.577 660.497 637.331C660.593 637.207 660.64 637.148 660.697 637.126ZM651.87 648.996C651.203 649.008 650.684 649.563 650.457 650.137L647.829 656.789C647.138 658.534 646.853 660.026 647.109 661.313C647.365 662.599 648.25 663.607 649.509 664.119L654.825 666.287C656.102 666.807 657.452 666.688 658.527 665.93C659.603 665.168 660.428 663.881 661.128 662.109L663.721 655.549C663.872 655.165 663.951 654.745 663.82 654.316C663.69 653.888 663.328 653.54 662.938 653.381C662.552 653.222 662.047 653.214 661.66 653.434C661.274 653.655 661.04 654.013 660.889 654.396L658.339 660.869C657.926 661.908 657.471 662.541 657.112 662.817C656.752 663.094 656.534 663.125 656.089 662.945L650.86 660.817C650.434 660.645 650.308 660.477 650.241 660.049C650.176 659.622 650.289 658.887 650.671 657.909L653.287 651.294C653.439 650.911 653.517 650.494 653.387 650.064C653.257 649.637 652.895 649.286 652.505 649.127C652.31 649.047 652.095 648.991 651.87 648.996ZM643.445 675.861C642.041 675.949 640.732 676.915 639.377 678.516L637.063 681.258C635.978 682.539 635.29 683.71 635.107 684.872C634.925 686.034 635.359 687.166 636.256 687.95L640.312 691.487C640.634 691.764 641.113 691.947 641.56 691.857C642.008 691.769 642.345 691.492 642.622 691.166C642.9 690.84 643.122 690.458 643.142 689.998C643.162 689.536 642.915 689.087 642.598 688.807L638.544 685.27C638.366 685.116 638.348 685.093 638.418 684.795C638.488 684.495 638.783 683.966 639.327 683.321L641.727 680.487C642.28 679.835 642.758 679.463 643.041 679.346C643.324 679.231 643.333 679.245 643.51 679.399L647.566 682.936C647.887 683.214 648.367 683.395 648.814 683.306C649.262 683.218 649.587 682.941 649.864 682.612C650.142 682.286 650.364 681.907 650.383 681.446C650.403 680.985 650.156 680.521 649.837 680.241L645.784 676.703C645.11 676.115 644.289 675.804 643.447 675.857L643.445 675.861ZM630.508 689.219C629.353 689.347 628.156 689.974 626.833 691.012L624.016 693.216C622.693 694.255 621.798 695.268 621.388 696.37C620.979 697.472 621.184 698.677 621.907 699.627L623.815 702.126C624.536 703.071 625.63 703.561 626.782 703.432C627.935 703.304 629.123 702.678 630.445 701.639L633.262 699.432C634.585 698.393 635.479 697.38 635.891 696.281C636.303 695.182 636.103 693.981 635.383 693.036L633.478 690.537C632.753 689.586 631.664 689.092 630.508 689.219ZM630.541 692.553C630.597 692.574 630.632 692.619 630.697 692.707L632.617 695.231C632.743 695.394 632.765 695.407 632.629 695.694C632.499 695.98 632.11 696.438 631.441 696.963L628.522 699.255C627.861 699.774 627.333 700.033 627.031 700.09C626.727 700.147 626.714 700.138 626.589 699.975L624.658 697.436C624.523 697.26 624.514 697.256 624.645 696.977C624.776 696.699 625.159 696.24 625.821 695.72L628.737 693.427C629.408 692.901 629.951 692.639 630.253 692.581C630.404 692.548 630.484 692.54 630.541 692.553ZM614.477 696.319C614.003 696.244 613.569 696.403 613.175 696.641C612.776 696.883 612.428 697.192 612.266 697.654C612.105 698.117 612.214 698.637 612.444 699.027C612.67 699.415 613.064 699.768 613.542 699.846C613.881 699.899 614.178 699.745 614.478 699.612C614.252 699.802 614.005 699.974 613.896 700.267C613.735 700.695 613.809 701.206 614.022 701.573L617.901 708.201C618.118 708.571 618.512 708.897 618.963 708.958C619.415 709.016 619.822 708.87 620.187 708.65C620.552 708.43 620.869 708.143 621.033 707.713C621.198 707.281 621.111 706.764 620.894 706.394L617.027 699.767C616.814 699.402 616.417 699.086 615.968 699.021C615.664 698.973 615.397 699.119 615.122 699.228C615.374 699.025 615.647 698.836 615.765 698.51C615.93 698.052 615.834 697.522 615.604 697.125C615.369 696.724 614.95 696.393 614.477 696.319ZM604.43 702.349C604.217 702.391 604.013 702.468 603.815 702.561C603.429 702.755 603.081 703.025 602.894 703.443C602.707 703.862 602.763 704.367 602.946 704.74L603.35 705.583C602.993 705.76 602.667 706.007 602.477 706.405C602.286 706.807 602.325 707.315 602.505 707.687C602.683 708.057 603.049 708.398 603.477 708.493C603.903 708.586 604.297 708.473 604.653 708.304L607.281 713.777C607.468 714.161 607.844 714.515 608.293 714.612C608.741 714.709 609.153 714.583 609.541 714.391C609.919 714.206 610.259 713.949 610.453 713.533C610.648 713.118 610.601 712.609 610.412 712.224L607.795 706.753L609.944 705.688C610.308 705.507 610.646 705.256 610.841 704.853C611.036 704.452 610.992 703.943 610.812 703.572C610.634 703.202 610.272 702.857 609.84 702.765C609.41 702.673 609.004 702.794 608.64 702.968L606.48 704.034L606.076 703.188C605.894 702.809 605.527 702.453 605.08 702.353C604.858 702.301 604.641 702.305 604.43 702.349ZM598.006 708.021C597.798 708.041 597.607 708.103 597.412 708.174L591.424 710.43C589.856 711.02 588.705 711.705 587.989 712.633C587.273 713.562 587.109 714.776 587.521 715.903L588.607 718.865C589.015 719.985 589.92 720.779 591.058 721.005C592.196 721.23 593.507 720.993 595.075 720.402L601.063 718.158C601.459 718.008 601.814 717.793 602.048 717.403C602.282 717.015 602.296 716.494 602.152 716.094C602.004 715.693 601.656 715.303 601.228 715.172C600.798 715.04 600.389 715.13 600.004 715.278L593.952 717.546C593.952 717.55 593.952 717.554 593.952 717.558C593.169 717.854 592.59 717.928 592.284 717.893C591.984 717.851 591.971 717.836 591.906 717.651L590.808 714.649C590.73 714.442 590.712 714.429 590.921 714.201C591.125 713.972 591.641 713.651 592.427 713.355L598.475 711.075C598.871 710.925 599.229 710.704 599.463 710.317C599.697 709.929 599.706 709.41 599.562 709.011C599.454 708.711 599.246 708.424 598.957 708.24C598.665 708.055 598.322 707.994 598.011 708.02L598.006 708.021ZM581.28 713.878C581.067 713.877 580.859 713.918 580.647 713.969C580.23 714.083 579.84 714.281 579.573 714.65C579.304 715.02 579.252 715.533 579.36 715.944L580.749 721.226C580.801 721.433 580.823 721.438 580.601 721.645C580.375 721.852 579.848 722.129 579.032 722.351L575.648 723.273C574.841 723.494 574.244 723.52 573.944 723.454C573.644 723.388 573.644 723.361 573.592 723.158L572.203 717.892C572.094 717.482 571.795 717.063 571.381 716.878C570.968 716.693 570.535 716.728 570.118 716.836C569.696 716.951 569.299 717.14 569.032 717.515C568.762 717.89 568.723 718.395 568.828 718.797L570.22 724.066C570.524 725.221 571.333 726.103 572.443 726.438C573.552 726.773 574.889 726.654 576.496 726.218L579.757 725.335C581.357 724.903 582.571 724.314 583.37 723.463C584.168 722.612 584.445 721.429 584.141 720.273L582.763 715.015C582.681 714.706 582.507 714.395 582.232 714.181C581.958 713.965 581.605 713.877 581.284 713.872L581.28 713.878ZM562.358 714.468C562.141 714.447 561.933 714.468 561.725 714.51C561.303 714.589 560.898 714.761 560.6 715.1C560.3 715.44 560.192 715.954 560.274 716.382L560.754 718.985L555.12 720.047C553.493 720.356 552.239 720.846 551.378 721.636C550.518 722.427 550.152 723.594 550.37 724.778L550.938 727.88C551.155 729.057 551.914 730 552.996 730.419C554.078 730.838 555.425 730.829 557.052 730.52L560.703 729.829C562.339 729.521 563.595 729.027 564.454 728.24C565.313 727.453 565.682 726.3 565.465 725.126L563.734 715.728C563.677 715.415 563.521 715.092 563.266 714.857C563.009 714.624 562.675 714.5 562.357 714.474L562.358 714.468ZM509.173 721.494C508.73 721.474 508.257 721.482 507.76 721.507L499.12 721.957C498.737 721.977 498.355 722.067 498.034 722.34C497.712 722.613 497.558 723.085 497.578 723.482L498.16 735.056C498.18 735.484 498.381 735.966 498.753 736.234C499.123 736.503 499.553 736.551 499.977 736.53C500.407 736.509 500.827 736.415 501.177 736.12C501.529 735.82 501.703 735.316 501.681 734.878L501.542 732.187L508.29 731.83C510.274 731.729 511.812 731.355 512.925 730.573C514.038 729.79 514.625 728.525 514.554 727.111L514.48 725.562C514.415 724.325 513.88 723.245 512.938 722.56C511.997 721.876 510.729 721.553 509.173 721.494ZM561.32 722.018L562.016 725.787C562.057 725.994 562.057 726.02 561.816 726.21C561.573 726.399 561.032 726.633 560.212 726.788L556.434 727.506C555.613 727.66 555.022 727.647 554.727 727.56C554.432 727.472 554.436 727.445 554.402 727.238L553.82 724.096C553.779 723.876 553.767 723.876 554.011 723.686C554.254 723.497 554.801 723.255 555.625 723.099L561.32 722.018ZM541.033 722.34C540.655 722.352 540.258 722.393 539.844 722.441L536.322 722.891C534.662 723.103 533.373 723.511 532.467 724.249C531.561 724.987 531.134 726.119 531.282 727.311L531.673 730.453C531.82 731.639 532.512 732.624 533.569 733.107C534.626 733.59 535.975 733.663 537.634 733.451L541.16 733.003C542.82 732.792 544.094 732.377 545 731.642C545.906 730.908 546.347 729.777 546.2 728.592L545.809 725.454C545.679 724.41 545.144 723.514 544.291 722.991C543.438 722.467 542.346 722.289 541.033 722.34ZM525.396 724.069L523.98 724.197C522.322 724.342 521.033 724.69 520.101 725.39C519.169 726.09 518.7 727.215 518.802 728.413L519.254 733.81C519.254 733.814 519.254 733.819 519.254 733.823C519.295 734.246 519.51 734.698 519.887 734.952C520.261 735.208 520.693 735.256 521.123 735.221C521.545 735.179 521.955 735.076 522.287 734.762C522.617 734.444 522.764 733.943 522.729 733.517L522.276 728.07C522.256 727.863 522.244 727.863 522.506 727.7C522.766 727.537 523.336 727.361 524.171 727.291L525.662 727.15C526.079 727.113 526.487 727.005 526.811 726.687C527.137 726.37 527.263 725.883 527.228 725.47C527.228 725.469 527.228 725.471 527.228 725.47C527.228 725.469 527.228 725.465 527.228 725.464C527.228 725.463 527.228 725.465 527.228 725.464C527.228 725.463 527.228 725.458 527.228 725.457C527.187 725.048 526.994 724.598 526.623 724.34C526.253 724.084 525.814 724.034 525.396 724.069ZM508.001 724.595C509.152 724.538 509.956 724.679 510.386 724.904C510.816 725.124 510.944 725.314 510.968 725.799L511.033 727.236C511.062 727.72 510.964 727.92 510.553 728.185C510.145 728.45 509.353 728.676 508.192 728.737L501.397 729.094L501.193 724.938L508.001 724.595ZM541.36 725.435L541.363 725.439C541.8 725.46 542.068 725.54 542.182 725.616C542.295 725.69 542.304 725.721 542.321 725.889L542.711 729.055C542.74 729.262 542.753 729.275 542.499 729.451C542.242 729.628 541.669 729.83 540.83 729.938L537.179 730.413C536.35 730.519 535.748 730.462 535.46 730.347C535.173 730.242 535.182 730.233 535.156 730.026L534.765 726.847C534.736 726.627 534.724 726.609 534.978 726.437C535.23 726.266 535.788 726.067 536.619 725.962L540.285 725.491C540.706 725.438 541.063 725.42 541.356 725.438L541.36 725.435Z" fill="#990000"/>
</svg>
