<svg width="119" height="85" viewBox="0 0 119 85" fill="none" xmlns="http://www.w3.org/2000/svg">
<path id="Vector" d="M13.3136 10.503C13.3136 7.7174 14.4046 5.04593 16.3465 3.07625C18.2885 1.10656 20.9223 0 23.6686 0C26.415 0 29.0488 1.10656 30.9907 3.07625C32.9327 5.04593 34.0237 7.7174 34.0237 10.503C34.0237 13.2885 32.9327 15.96 30.9907 17.9297C29.0488 19.8994 26.415 21.0059 23.6686 21.0059C20.9223 21.0059 18.2885 19.8994 16.3465 17.9297C14.4046 15.96 13.3136 13.2885 13.3136 10.503ZM11.8343 40.08C9.98521 42.1806 8.87574 44.9752 8.87574 48.0135C8.87574 51.0519 9.98521 53.8464 11.8343 55.947V40.0613V40.08ZM38.5355 30.8337C33.0436 35.7663 29.5858 42.9871 29.5858 51.0144C29.5858 57.4474 31.8047 63.3553 35.503 67.9879V72.0203C35.503 75.34 32.8587 78.022 29.5858 78.022H17.7515C14.4785 78.022 11.8343 75.34 11.8343 72.0203V66.9939C4.84467 63.6179 0 56.3971 0 48.0135C0 36.404 9.26405 27.0076 20.7101 27.0076H26.6272C31.0651 27.0076 35.1701 28.4143 38.5355 30.8149V30.8337ZM82.8402 72.0203V67.9879C86.5385 63.3553 88.7574 57.4474 88.7574 51.0144C88.7574 42.9871 85.2996 35.7663 79.8077 30.8149C83.1731 28.4143 87.2781 27.0076 91.716 27.0076H97.6331C109.079 27.0076 118.343 36.404 118.343 48.0135C118.343 56.3971 113.499 63.6179 106.509 66.9939V72.0203C106.509 75.34 103.865 78.022 100.592 78.022H88.7574C85.4845 78.022 82.8402 75.34 82.8402 72.0203ZM84.3195 10.503C84.3195 7.7174 85.4105 5.04593 87.3524 3.07625C89.2944 1.10656 91.9282 0 94.6746 0C97.4209 0 100.055 1.10656 101.997 3.07625C103.939 5.04593 105.03 7.7174 105.03 10.503C105.03 13.2885 103.939 15.96 101.997 17.9297C100.055 19.8994 97.4209 21.0059 94.6746 21.0059C91.9282 21.0059 89.2944 19.8994 87.3524 17.9297C85.4105 15.96 84.3195 13.2885 84.3195 10.503ZM106.509 40.08V55.9658C108.358 53.8464 109.467 51.0706 109.467 48.0323C109.467 44.9939 108.358 42.1994 106.509 40.0988V40.08ZM59.1716 0C62.3103 0 65.3204 1.26464 67.5397 3.51571C69.7591 5.76678 71.0059 8.81989 71.0059 12.0034C71.0059 15.1869 69.7591 18.24 67.5397 20.4911C65.3204 22.7421 62.3103 24.0068 59.1716 24.0068C56.0329 24.0068 53.0228 22.7421 50.8035 20.4911C48.5841 18.24 47.3373 15.1869 47.3373 12.0034C47.3373 8.81989 48.5841 5.76678 50.8035 3.51571C53.0228 1.26464 56.0329 0 59.1716 0ZM44.3787 51.0144C44.3787 54.0527 45.4882 56.8285 47.3373 58.9478V43.0621C45.4882 45.1815 44.3787 47.9573 44.3787 50.9956V51.0144ZM71.0059 43.0809V58.9666C72.855 56.8473 73.9645 54.0715 73.9645 51.0331C73.9645 47.9948 72.855 45.2002 71.0059 43.0996V43.0809ZM82.8402 51.0144C82.8402 59.398 77.9956 66.6188 71.0059 69.9947V78.022C71.0059 81.3417 68.3617 84.0237 65.0888 84.0237H53.2544C49.9815 84.0237 47.3373 81.3417 47.3373 78.022V69.9947C40.3476 66.6188 35.503 59.398 35.503 51.0144C35.503 39.4049 44.767 30.0085 56.213 30.0085H62.1302C73.5762 30.0085 82.8402 39.4049 82.8402 51.0144Z" fill="white"/>
</svg>
